# xmcd
#
# Track frame offsets: 
#        150
#        14996
#        25165
#        37712
#        47539
#        60214
#        70258
#        83516
#        96898
#        109767
#        121111
#        130901
#        142161
#        156388
#        170894
#        183962
#        198667
#        210658
#        223409
#        237198
#        248647
#        261419
#        275177
#        288447
#        301599
#
# Disc length: 4152 seconds
#
# Revision: 0
# Processed by: cddbd v1.5.2PL0 Copyright (c) Steve Scherf et al.
# Submitted via: ExactAudioCopy v0.99pb5
#
DISCID=73103619
DTITLE=Various Artist - Drunk - CD2
DYEAR=1958
DGENRE=Blues
TTITLE0=Stick McGhee - Drinkin' Wine Spo-Dee-O-Dee (1949)
TTITLE1=The Champs - Tequila (1958)
TTITLE2=Jim Reeves - Drinking Tequila (1955)
TTITLE3=Hank Thompson - A Six Pack To Go (1960)
TTITLE4=Floyd Dixon - Hey Bartender (1955)
TTITLE5=Papa Lightfoot - Wine, Women, Whiskey (1954)
TTITLE6=Sonny Boy Williamson - Whiskey Headed Blues (1938)
TTITLE7=Wynonie Harris - Who Threw The Whiskey In The Well (1945)
TTITLE8=Slim Gailard - The Bartender's Just Like A Mother (1947)
TTITLE9=Nat King Cole - Scotchin' With The Soda (1941)
TTITLE10=Marvin Phillips - Wine Woogie (1952)
TTITLE11=Andy Reynolds and His 101 Ranch Boys - Beer Bottle Mama (1950)
TTITLE12=Jack 'The Bear' Parker - Cheap Old Wine and Whiskey (1953)
TTITLE13=Rosco Gordon - We're All Loaded (Whiskey Made Me Drunk) (1953
TTITLE13=)
TTITLE14=Johnny Guitar Watson - Half Pint-A-Whiskey (1954)
TTITLE15=Lucille Bogan - Sloppy Drunk Blues (1930)
TTITLE16=Bill Boyd - Drink The Barrel Dry (1940)
TTITLE17=Smokey Rogers - Drinkin' And A-Thinkin' (1948)
TTITLE18=Jerry Lee Lewis - It All Depends (Who Will Buy The Wine) (195
TTITLE18=8)
TTITLE19=Willie Dixon and Memphis Slim - Beer Drinking Woman (1959)
TTITLE20=Al Dexter - Wine, Women And Song (1945)
TTITLE21=Professor Longhair - Hadacol Bounce (1950)
TTITLE22=Big Jay McNeely - All The Wine Is Gone (1951)
TTITLE23=The Sons Of The Pioneers - Cigareetes, Whusky And Wild, Wild 
TTITLE23=Women (1947)
TTITLE24=Jimmy Witherspoon - Drinkin' Beer (Havin' A Ball) (1952)
EXTD=
EXTT0=
EXTT1=
EXTT2=
EXTT3=
EXTT4=
EXTT5=
EXTT6=
EXTT7=
EXTT8=
EXTT9=
EXTT10=
EXTT11=
EXTT12=
EXTT13=
EXTT14=
EXTT15=
EXTT16=
EXTT17=
EXTT18=
EXTT19=
EXTT20=
EXTT21=
EXTT22=
EXTT23=
EXTT24=
PLAYORDER=
